 Full Credits To Feel Free :)

 ######## ######## ######## ##          ######## ########  ######## ######## 
 ##       ##       ##       ##          ##       ##     ## ##       ##       
 ##       ##       ##       ##          ##       ##     ## ##       ##       
 ######   ######   ######   ##          ######   ########  ######   ######   
 ##       ##       ##       ##          ##       ##   ##   ##       ##       
 ##       ##       ##       ##          ##       ##    ##  ##       ##       
 ##       ######## ######## ########    ##       ##     ## ######## ########


 Genre:Sci-Fi
 Language:English
 IMDb:http://www.imdb.com/title/tt1657284
 Source:BluRay.x264-BRMP Thanks!

 Format : AVI
 Format/Info : Audio Video Interleave
 File size : 1.19 GiB
 Duration : 1h 30mn
 Overall bit rate : 1 892 Kbps

 Video
 ID : 0
 Format : MPEG-4 Visual
 Format profile : Advanced Simple@L5
 Format settings, BVOP : Yes
 Format settings, QPel : No
 Format settings, GMC : No warppoints
 Format settings, Matrix : Default (H.263)
 Codec ID : XVID
 Codec ID/Hint : XviD
 Duration : 1h 30mn
 Bit rate : 1 435 Kbps
 Width : 720 pixels
 Height : 400 pixels
 Display aspect ratio : 16:9
 Frame rate : 24.000 fps
 Color space : YUV
 Chroma subsampling : 4:2:0
 Bit depth : 8 bits
 Scan type : Progressive
 Bits/(Pixel*Frame) : 0.208
 Stream size : 926 MiB (76%)
 Writing library : XviD 1.2.1 (UTC 2008-12-04)

 Audio
 ID : 1
 Format : AC-3
 Format/Info : Audio Coding 3
 Mode extension : CM (complete main)
 Codec ID : 2000
 Duration : 1h 30mn
 Bit rate mode : Constant
 Bit rate : 448 Kbps
 Channel(s) : 6 channels
 Channel positions : Front: L C R, Side: L R, LFE
 Sampling rate : 48.0 KHz
 Bit depth : 16 bits
 Stream size : 289 MiB (24%)
 Alignment : Aligned on interleaves
 Interleave, duration : 42 ms (1.00 video frame)
 Interleave, preload duration : 512 ms


 Plot:
 Beneath the Alaskan landscape, the melting permafrost is about to drastically 
 alter the tranquil scenery...


 Screen Shots:
  http://leetleech.org/images/29496142496691718285.png
  http://leetleech.org/images/56556745440354891260.png
  http://leetleech.org/images/69114941370887488610.png
  http://leetleech.org/images/20057090029306721282.png



 Full Credits To Feel Free :)

 ######## ######## ######## ##          ######## ########  ######## ######## 
 ##       ##       ##       ##          ##       ##     ## ##       ##       
 ##       ##       ##       ##          ##       ##     ## ##       ##       
 ######   ######   ######   ##          ######   ########  ######   ######   
 ##       ##       ##       ##          ##       ##   ##   ##       ##       
 ##       ##       ##       ##          ##       ##    ##  ##       ##       
 ##       ######## ######## ########    ##       ##     ## ######## ########